<svg xmlns="http://www.w3.org/2000/svg" xmlns:xlink="http://www.w3.org/1999/xlink" width="500" zoomAndPan="magnify" viewBox="0 0 375 374.999991" height="500" preserveAspectRatio="xMidYMid meet" version="1.0"><defs><g/><clipPath id="16dcfc77bd"><path d="M 102.839844 147 L 197 147 L 197 272.769531 L 102.839844 272.769531 Z M 102.839844 147 " clip-rule="nonzero"/></clipPath><clipPath id="70868ebcfa"><path d="M 105 102.519531 L 272.339844 102.519531 L 272.339844 270 L 105 270 Z M 105 102.519531 " clip-rule="nonzero"/></clipPath></defs><g clip-path="url(#16dcfc77bd)"><path fill="#d52519" d="M 102.839844 272.71875 C 102.839844 272.71875 170.476562 244.625 191.316406 194.398438 C 214.292969 135.234375 159.84375 148.855469 159.84375 148.855469 C 228.070312 179.253906 102.839844 272.71875 102.839844 272.71875 Z M 102.839844 272.71875 " fill-opacity="1" fill-rule="nonzero"/></g><path fill="#d52519" d="M 233.289062 149.695312 C 232.230469 169.289062 202.136719 171.199219 202.136719 171.199219 C 202.398438 178.613281 198.101562 187.816406 198.101562 187.816406 C 242.289062 177.761719 233.289062 149.695312 233.289062 149.695312 Z M 233.289062 149.695312 " fill-opacity="1" fill-rule="nonzero"/><path fill="#d52519" d="M 198.25 124.578125 C 191.324219 124.578125 185.703125 130.203125 185.703125 137.132812 C 185.703125 144.066406 191.324219 149.691406 198.25 149.691406 C 205.179688 149.691406 210.800781 144.066406 210.800781 137.132812 C 210.800781 130.203125 205.1875 124.578125 198.25 124.578125 Z M 198.25 124.578125 " fill-opacity="1" fill-rule="nonzero"/><path fill="#d52519" d="M 163.578125 249.375 C 180.882812 245.757812 252.246094 218.214844 193.363281 200.386719 C 190.675781 206.628906 187.761719 210.113281 187.761719 210.113281 C 187.761719 210.113281 242.601562 213.972656 163.578125 249.375 Z M 163.578125 249.375 " fill-opacity="1" fill-rule="nonzero"/><g clip-path="url(#70868ebcfa)"><path fill="#d52519" d="M 188.828125 102.59375 C 142.800781 102.59375 105.351562 140.066406 105.351562 186.121094 L 105.351562 186.128906 C 106.367188 205.835938 114.652344 224.628906 127.804688 238.265625 C 116.28125 223.191406 110.683594 204.292969 111.835938 186.128906 C 111.835938 143.648438 146.378906 109.085938 188.828125 109.085938 C 231.277344 109.085938 265.824219 143.648438 265.824219 186.128906 C 265.824219 228.613281 231.285156 263.175781 188.828125 263.175781 C 174.265625 264.285156 159.101562 261.144531 145.730469 253.863281 C 157.914062 262.960938 173.042969 268.613281 188.828125 269.664062 C 234.863281 269.664062 272.3125 232.191406 272.3125 186.128906 C 272.3125 140.066406 234.863281 102.59375 188.828125 102.59375 Z M 188.828125 102.59375 " fill-opacity="1" fill-rule="nonzero"/></g><g fill="#ffffff" fill-opacity="1"><g transform="translate(126.630935, 113.611014)"><g><path d="M -2.152344 -20.886719 C -2.371094 -20.726562 -2.421875 -20.523438 -2.3125 -20.265625 L 2.324219 -9.675781 L -6.371094 -17.292969 C -6.585938 -17.472656 -6.796875 -17.488281 -7.015625 -17.328125 L -9.429688 -15.558594 C -9.664062 -15.386719 -9.699219 -15.164062 -9.527344 -14.925781 L 0.644531 -1.035156 C 0.820312 -0.796875 1.042969 -0.761719 1.28125 -0.9375 L 2.960938 -2.167969 C 3.199219 -2.34375 3.234375 -2.5625 3.058594 -2.800781 L -2.964844 -11.027344 L -2.835938 -11.121094 L 5.023438 -4.183594 C 5.238281 -4.003906 5.445312 -3.988281 5.667969 -4.148438 L 6.5625 -4.804688 C 6.78125 -4.964844 6.828125 -5.167969 6.722656 -5.429688 L 2.484375 -15.015625 L 2.609375 -15.109375 L 8.632812 -6.882812 C 8.808594 -6.644531 9.03125 -6.613281 9.265625 -6.785156 L 10.96875 -8.03125 C 11.203125 -8.203125 11.238281 -8.425781 11.066406 -8.664062 L 0.894531 -22.554688 C 0.71875 -22.792969 0.496094 -22.828125 0.261719 -22.652344 Z M -2.152344 -20.886719 "/></g></g></g><g fill="#ffffff" fill-opacity="1"><g transform="translate(141.037335, 103.458427)"><g><path d="M 10.628906 -5.183594 C 10.871094 -5.304688 10.914062 -5.476562 10.746094 -5.671875 L 0.71875 -17.644531 C 0.578125 -17.828125 0.417969 -17.847656 0.234375 -17.757812 L -2.597656 -16.378906 C -2.78125 -16.289062 -2.863281 -16.148438 -2.804688 -15.925781 L 0.460938 -0.652344 C 0.511719 -0.398438 0.671875 -0.328125 0.894531 -0.4375 L 2.890625 -1.410156 C 3.074219 -1.5 3.125 -1.652344 3.078125 -1.855469 L 2.457031 -4.726562 L 6.285156 -6.59375 L 8.1875 -4.347656 C 8.320312 -4.183594 8.46875 -4.132812 8.652344 -4.222656 Z M 4.5 -8.648438 L 1.9375 -7.398438 L 0.515625 -13.5625 Z M 4.5 -8.648438 "/></g></g></g><g fill="#ffffff" fill-opacity="1"><g transform="translate(154.995028, 96.912847)"><g><path d="M 10.375 -3.105469 C 10.722656 -3.210938 10.785156 -3.464844 10.550781 -3.703125 L 4.324219 -10.210938 L 6.070312 -17.804688 C 6.160156 -18.136719 5.933594 -18.332031 5.609375 -18.234375 L 3.332031 -17.550781 C 3.09375 -17.480469 2.980469 -17.304688 2.929688 -17.074219 L 1.308594 -10.324219 L -0.378906 -15.96875 C -0.464844 -16.25 -0.664062 -16.355469 -0.945312 -16.269531 L -3.027344 -15.648438 C -3.308594 -15.5625 -3.417969 -15.367188 -3.332031 -15.082031 L 0.957031 -0.757812 C 1.039062 -0.476562 1.238281 -0.371094 1.519531 -0.453125 L 3.601562 -1.078125 C 3.886719 -1.164062 3.992188 -1.359375 3.90625 -1.640625 L 2.796875 -5.355469 L 3.136719 -7.136719 L 7.476562 -2.59375 C 7.652344 -2.410156 7.8125 -2.339844 8.074219 -2.417969 Z M 10.375 -3.105469 "/></g></g></g><g fill="#ffffff" fill-opacity="1"><g transform="translate(169.215618, 92.904174)"><g><path d="M 7.988281 -16.726562 C 7.957031 -16.953125 7.847656 -17.074219 7.578125 -17.039062 L -0.683594 -15.914062 C -0.882812 -15.886719 -1 -15.730469 -0.96875 -15.507812 L 1.074219 -0.511719 C 1.105469 -0.289062 1.257812 -0.171875 1.460938 -0.199219 L 9.71875 -1.324219 C 9.988281 -1.359375 10.0625 -1.507812 10.03125 -1.734375 L 9.722656 -3.976562 C 9.691406 -4.222656 9.585938 -4.324219 9.316406 -4.289062 L 3.773438 -3.53125 L 3.320312 -6.855469 L 7.539062 -7.429688 C 7.761719 -7.460938 7.878906 -7.613281 7.847656 -7.859375 L 7.542969 -10.082031 C 7.511719 -10.328125 7.355469 -10.445312 7.132812 -10.414062 L 2.914062 -9.839844 L 2.441406 -13.296875 L 7.984375 -14.050781 C 8.253906 -14.089844 8.324219 -14.257812 8.292969 -14.484375 Z M 7.988281 -16.726562 "/></g></g></g><g fill="#ffffff" fill-opacity="1"><g transform="translate(183.324257, 91.335955)"><g/></g></g><g fill="#ffffff" fill-opacity="1"><g transform="translate(191.871458, 91.217176)"><g><path d="M 10.765625 -14.726562 C 10.496094 -14.757812 10.320312 -14.640625 10.207031 -14.425781 L 7.023438 -8.933594 L 5.164062 -15.003906 C 5.101562 -15.242188 4.957031 -15.394531 4.6875 -15.425781 L 2.4375 -15.683594 C 2.101562 -15.722656 1.917969 -15.515625 2.019531 -15.207031 L 5.066406 -5.394531 L 4.441406 0.0546875 C 4.40625 0.347656 4.546875 0.519531 4.839844 0.554688 L 7 0.804688 C 7.292969 0.835938 7.46875 0.695312 7.5 0.40625 L 8.125 -5.042969 L 13.316406 -13.910156 C 13.484375 -14.1875 13.355469 -14.429688 13.015625 -14.46875 Z M 10.765625 -14.726562 "/></g></g></g><g fill="#ffffff" fill-opacity="1"><g transform="translate(206.307527, 93.098941)"><g><path d="M 1.957031 -2.84375 C 1.394531 -0.792969 2.183594 0.601562 4.238281 1.167969 L 6.683594 1.839844 C 8.738281 2.40625 10.128906 1.613281 10.695312 -0.441406 L 13.171875 -9.4375 C 13.738281 -11.492188 12.945312 -12.886719 10.894531 -13.449219 L 8.445312 -14.125 C 6.394531 -14.6875 5 -13.898438 4.433594 -11.84375 Z M 5.582031 -1.496094 C 5.011719 -1.652344 4.785156 -2.019531 4.949219 -2.609375 L 7.125 -10.515625 C 7.28125 -11.085938 7.671875 -11.304688 8.238281 -11.148438 L 9.636719 -10.765625 C 10.203125 -10.609375 10.425781 -10.21875 10.269531 -9.652344 L 8.09375 -1.742188 C 7.929688 -1.152344 7.546875 -0.953125 6.980469 -1.109375 Z M 5.582031 -1.496094 "/></g></g></g><g fill="#ffffff" fill-opacity="1"><g transform="translate(219.744271, 97.007388)"><g><path d="M 13.460938 -11.355469 C 13.230469 -11.457031 12.960938 -11.355469 12.859375 -11.128906 L 8.167969 -0.621094 C 7.917969 -0.0625 7.507812 0.078125 6.96875 -0.160156 L 5.894531 -0.640625 C 5.355469 -0.882812 5.1875 -1.28125 5.4375 -1.839844 L 10.128906 -12.347656 C 10.230469 -12.574219 10.128906 -12.84375 9.902344 -12.945312 L 7.917969 -13.832031 C 7.6875 -13.933594 7.417969 -13.832031 7.316406 -13.605469 L 2.363281 -2.515625 C 1.496094 -0.574219 2.070312 0.925781 4.011719 1.792969 L 6.328125 2.828125 C 8.273438 3.695312 9.769531 3.125 10.640625 1.179688 L 15.589844 -9.90625 C 15.691406 -10.136719 15.589844 -10.40625 15.363281 -10.507812 Z M 13.460938 -11.355469 "/></g></g></g><g fill="#ffffff" fill-opacity="1"><g transform="translate(232.437319, 102.898853)"><g><path d="M 15.386719 -5.078125 C 16.539062 -6.871094 16.199219 -8.433594 14.410156 -9.585938 L 9.835938 -12.527344 C 9.644531 -12.652344 9.457031 -12.609375 9.335938 -12.421875 L 1.148438 0.308594 C 1.027344 0.5 1.066406 0.6875 1.257812 0.808594 L 3.125 2.011719 C 3.316406 2.132812 3.503906 2.089844 3.625 1.902344 L 6.015625 -1.8125 L 7.710938 -0.722656 L 6.210938 3.617188 C 6.140625 3.8125 6.171875 3.972656 6.363281 4.09375 L 8.230469 5.292969 C 8.441406 5.429688 8.628906 5.386719 8.71875 5.125 L 10.363281 0.390625 C 11.351562 0.40625 12.214844 -0.144531 12.925781 -1.25 Z M 7.597656 -4.273438 L 10.429688 -8.675781 L 12.332031 -7.449219 C 12.828125 -7.128906 12.925781 -6.691406 12.605469 -6.195312 L 10.753906 -3.320312 C 10.4375 -2.824219 9.996094 -2.726562 9.503906 -3.046875 Z M 7.597656 -4.273438 "/></g></g></g><g fill="#ffffff" fill-opacity="1"><g transform="translate(244.095853, 110.638407)"><g><path d="M 13.789062 -8.980469 C 12.210938 -10.375 10.59375 -10.292969 9.183594 -8.695312 L 6.589844 -5.757812 C 6.304688 -5.433594 6.277344 -5.09375 6.496094 -4.722656 L 9.402344 0.199219 L 7.886719 1.914062 C 7.484375 2.375 7.050781 2.386719 6.609375 1.996094 L 5.691406 1.1875 C 5.265625 0.8125 5.207031 0.367188 5.613281 -0.09375 L 6.242188 -0.808594 C 6.40625 -0.992188 6.398438 -1.152344 6.210938 -1.320312 L 4.492188 -2.832031 C 4.324219 -2.984375 4.148438 -2.988281 3.984375 -2.800781 L 3.007812 -1.695312 C 1.597656 -0.101562 1.714844 1.515625 3.296875 2.910156 L 5.199219 4.585938 C 6.792969 5.996094 8.394531 5.898438 9.800781 4.300781 L 12.621094 1.105469 C 12.90625 0.785156 12.933594 0.445312 12.734375 0.0898438 L 9.792969 -4.863281 L 11.066406 -6.308594 C 11.457031 -6.75 11.921875 -6.761719 12.347656 -6.386719 L 13.28125 -5.5625 C 13.738281 -5.160156 13.75 -4.726562 13.359375 -4.285156 L 12.730469 -3.570312 C 12.582031 -3.402344 12.59375 -3.210938 12.761719 -3.058594 L 14.476562 -1.546875 C 14.664062 -1.378906 14.839844 -1.40625 14.988281 -1.578125 L 15.980469 -2.699219 C 17.386719 -4.296875 17.289062 -5.894531 15.691406 -7.304688 Z M 13.789062 -8.980469 "/></g></g></g><g fill="#ffffff" fill-opacity="1"><g transform="translate(254.453478, 120.049408)"><g><path d="M 18.414062 -2.136719 C 18.585938 -2.28125 18.632812 -2.4375 18.457031 -2.644531 L 13.113281 -9.042969 C 12.980469 -9.199219 12.789062 -9.214844 12.617188 -9.070312 L 1.003906 0.636719 C 0.832031 0.78125 0.8125 0.972656 0.945312 1.128906 L 6.292969 7.527344 C 6.464844 7.734375 6.628906 7.71875 6.800781 7.570312 L 8.539062 6.117188 C 8.730469 5.957031 8.761719 5.816406 8.585938 5.609375 L 4.996094 1.316406 L 7.570312 -0.835938 L 10.300781 2.433594 C 10.445312 2.605469 10.636719 2.621094 10.828125 2.460938 L 12.550781 1.023438 C 12.742188 0.863281 12.757812 0.671875 12.613281 0.5 L 9.882812 -2.769531 L 12.558594 -5.007812 L 16.148438 -0.714844 C 16.320312 -0.503906 16.5 -0.535156 16.675781 -0.683594 Z M 18.414062 -2.136719 "/></g></g></g><g fill="#ffffff" fill-opacity="1"><g transform="translate(263.258819, 130.953387)"><g><path d="M 4.753906 2.027344 L 7.101562 5.847656 C 7.230469 6.0625 7.175781 6.230469 6.980469 6.347656 L 5.050781 7.535156 C 4.835938 7.664062 4.683594 7.625 4.550781 7.414062 L 0.78125 1.273438 C 0.664062 1.082031 0.6875 0.90625 0.902344 0.777344 L 13.800781 -7.140625 C 13.992188 -7.261719 14.179688 -7.214844 14.296875 -7.023438 L 15.53125 -5.015625 C 15.660156 -4.800781 15.605469 -4.632812 15.410156 -4.515625 Z M 4.753906 2.027344 "/></g></g></g><g fill="#ffffff" fill-opacity="1"><g transform="translate(269.87793, 142.036746)"><g><path d="M 18.257812 3.269531 C 18.46875 3.179688 18.539062 3.003906 18.449219 2.792969 L 15.167969 -4.871094 C 15.070312 -5.097656 14.898438 -5.148438 14.691406 -5.058594 L 0.777344 0.898438 C 0.570312 0.988281 0.492188 1.144531 0.589844 1.375 L 1.515625 3.539062 C 1.605469 3.75 1.785156 3.820312 1.992188 3.730469 L 7.179688 1.507812 L 8.855469 5.425781 C 8.945312 5.632812 9.101562 5.714844 9.332031 5.617188 L 11.414062 4.722656 C 11.621094 4.632812 11.691406 4.457031 11.605469 4.246094 L 9.925781 0.332031 L 13.488281 -1.191406 L 15.699219 3.972656 C 15.789062 4.179688 15.96875 4.25 16.175781 4.160156 Z M 18.257812 3.269531 "/></g></g></g><g fill="#ffffff" fill-opacity="1"><g transform="translate(275.150743, 155.239101)"><g/></g></g><g fill="#ffffff" fill-opacity="1"><g transform="translate(277.523969, 163.47532)"><g><path d="M 0.535156 1.0625 C 0.3125 1.097656 0.199219 1.253906 0.234375 1.476562 L 0.5625 3.671875 C 0.601562 3.917969 0.753906 4.007812 0.976562 3.972656 L 5.453125 3.261719 L 5.921875 6.078125 C 6.28125 8.175781 7.578125 9.117188 9.65625 8.785156 L 14.042969 8.085938 C 16.144531 7.753906 17.085938 6.457031 16.75 4.351562 L 15.898438 -1.015625 C 15.859375 -1.242188 15.707031 -1.355469 15.480469 -1.316406 Z M 8.335938 2.800781 L 13.394531 1.996094 L 13.773438 4.230469 C 13.867188 4.835938 13.601562 5.175781 13.019531 5.269531 L 9.753906 5.789062 C 9.195312 5.878906 8.8125 5.640625 8.714844 5.035156 Z M 8.335938 2.800781 "/></g></g></g><g fill="#ffffff" fill-opacity="1"><g transform="translate(279.524346, 177.32526)"><g><path d="M 12.660156 10.113281 C 14.792969 10.101562 15.917969 8.960938 15.902344 6.832031 L 15.867188 1.394531 C 15.867188 1.167969 15.730469 1.03125 15.503906 1.035156 L 0.371094 1.128906 C 0.144531 1.132812 0.0078125 1.269531 0.0078125 1.496094 L 0.0234375 3.714844 C 0.0234375 3.941406 0.160156 4.078125 0.386719 4.074219 L 4.804688 4.046875 L 4.820312 6.0625 L 0.363281 7.179688 C 0.160156 7.226562 0.046875 7.339844 0.046875 7.566406 L 0.0625 9.785156 C 0.0625 10.035156 0.199219 10.171875 0.472656 10.101562 L 5.335938 8.890625 C 5.863281 9.726562 6.792969 10.152344 8.109375 10.144531 Z M 7.730469 4.027344 L 12.960938 3.996094 L 12.976562 6.261719 C 12.980469 6.847656 12.664062 7.167969 12.078125 7.171875 L 8.65625 7.195312 C 8.066406 7.199219 7.746094 6.882812 7.742188 6.292969 Z M 7.730469 4.027344 "/></g></g></g><g fill="#ffffff" fill-opacity="1"><g transform="translate(279.411671, 191.318457)"><g><path d="M 3.0625 1.59375 C 0.957031 1.285156 -0.328125 2.242188 -0.636719 4.347656 L -1.003906 6.859375 C -1.308594 8.96875 -0.351562 10.25 1.753906 10.558594 L 10.988281 11.910156 C 13.097656 12.21875 14.382812 11.261719 14.691406 9.152344 L 15.058594 6.640625 C 15.363281 4.535156 14.40625 3.25 12.300781 2.941406 Z M 2.171875 5.355469 C 2.257812 4.773438 2.59375 4.5 3.199219 4.589844 L 11.3125 5.773438 C 11.898438 5.859375 12.164062 6.21875 12.078125 6.800781 L 11.871094 8.238281 C 11.785156 8.820312 11.425781 9.085938 10.84375 9.003906 L 2.726562 7.816406 C 2.121094 7.726562 1.875 7.371094 1.960938 6.789062 Z M 2.171875 5.355469 "/></g></g></g><g fill="#ffffff" fill-opacity="1"><g transform="translate(277.188516, 205.134395)"><g><path d="M 12.929688 11.957031 C 13 11.71875 12.867188 11.464844 12.628906 11.390625 L 1.621094 8.027344 C 1.035156 7.851562 0.847656 7.460938 1.019531 6.898438 L 1.363281 5.769531 C 1.535156 5.207031 1.910156 4.988281 2.496094 5.167969 L 13.5 8.53125 C 13.738281 8.605469 13.996094 8.46875 14.066406 8.230469 L 14.703125 6.152344 C 14.777344 5.914062 14.640625 5.660156 14.402344 5.585938 L 2.789062 2.035156 C 0.753906 1.414062 -0.660156 2.167969 -1.285156 4.203125 L -2.027344 6.628906 C -2.648438 8.667969 -1.894531 10.082031 0.140625 10.703125 L 11.753906 14.253906 C 11.992188 14.324219 12.246094 14.191406 12.320312 13.953125 Z M 12.929688 11.957031 "/></g></g></g><g fill="#ffffff" fill-opacity="1"><g transform="translate(272.905842, 218.456578)"><g><path d="M -0.164062 1.179688 C -0.386719 1.070312 -0.539062 1.121094 -0.648438 1.347656 L -3.003906 6.25 C -3.925781 8.167969 -3.394531 9.679688 -1.476562 10.601562 L 6.914062 14.636719 C 8.835938 15.558594 10.367188 15.039062 11.289062 13.117188 L 13.644531 8.21875 C 13.753906 7.992188 13.679688 7.832031 13.476562 7.734375 Z M 0.871094 5.09375 L 9.773438 9.371094 L 8.871094 11.25 C 8.613281 11.78125 8.191406 11.929688 7.640625 11.664062 L 0.390625 8.179688 C -0.160156 7.917969 -0.289062 7.503906 -0.0351562 6.972656 Z M 0.871094 5.09375 "/></g></g></g><g fill="#ffffff" fill-opacity="1"><g transform="translate(266.434591, 231.112323)"><g/></g></g><g fill="#ffffff" fill-opacity="1"><g transform="translate(135.598024, 299.253847)"><g><path d="M 6.078125 0.234375 C 4.335938 0.234375 3.078125 -0.3125 2.296875 -1.40625 C 1.523438 -2.507812 1.140625 -4.144531 1.140625 -6.3125 L 1.140625 -12.734375 C 1.140625 -14.222656 1.289062 -15.445312 1.59375 -16.40625 C 1.90625 -17.363281 2.4375 -18.097656 3.1875 -18.609375 C 3.9375 -19.117188 4.96875 -19.375 6.28125 -19.375 C 8.050781 -19.375 9.328125 -18.921875 10.109375 -18.015625 C 10.898438 -17.117188 11.296875 -15.707031 11.296875 -13.78125 L 11.296875 -13.0625 L 8.78125 -13.0625 L 8.78125 -13.65625 C 8.78125 -14.570312 8.722656 -15.28125 8.609375 -15.78125 C 8.492188 -16.28125 8.257812 -16.65625 7.90625 -16.90625 C 7.550781 -17.164062 7.023438 -17.296875 6.328125 -17.296875 C 5.585938 -17.296875 5.035156 -17.125 4.671875 -16.78125 C 4.304688 -16.4375 4.070312 -15.976562 3.96875 -15.40625 C 3.863281 -14.84375 3.8125 -14.085938 3.8125 -13.140625 L 3.8125 -6.03125 C 3.8125 -4.550781 3.988281 -3.488281 4.34375 -2.84375 C 4.707031 -2.207031 5.394531 -1.890625 6.40625 -1.890625 C 7.394531 -1.890625 8.078125 -2.238281 8.453125 -2.9375 C 8.828125 -3.632812 9.015625 -4.75 9.015625 -6.28125 L 9.015625 -7.609375 L 6.5625 -7.609375 L 6.5625 -9.515625 L 11.4375 -9.515625 L 11.4375 0 L 9.75 0 L 9.484375 -2.203125 C 8.890625 -0.578125 7.753906 0.234375 6.078125 0.234375 Z M 6.078125 0.234375 "/></g></g></g><g fill="#ffffff" fill-opacity="1"><g transform="translate(148.287565, 299.253847)"><g><path d="M 4.4375 -6.78125 L 0.28125 -19.21875 L 2.78125 -19.21875 L 5.71875 -9.9375 L 8.609375 -19.21875 L 11.125 -19.21875 L 7 -6.78125 L 7 0 L 4.4375 0 Z M 4.4375 -6.78125 "/></g></g></g><g fill="#ffffff" fill-opacity="1"><g transform="translate(159.696293, 299.253847)"><g><path d="M 1.796875 -19.21875 L 4.4375 -19.21875 L 7.828125 -3.625 L 11.25 -19.21875 L 13.859375 -19.21875 L 14.203125 0 L 12.046875 0 L 11.828125 -13.953125 L 8.59375 0 L 7.0625 0 L 3.84375 -13.953125 L 3.625 0 L 1.453125 0 Z M 1.796875 -19.21875 "/></g></g></g><g fill="#ffffff" fill-opacity="1"><g transform="translate(175.350688, 299.253847)"><g/></g></g><g fill="#ffffff" fill-opacity="1"><g transform="translate(180.782283, 299.253847)"><g><path d="M 1.5 -19.21875 L 5.359375 -19.21875 C 7.304688 -19.21875 8.734375 -18.816406 9.640625 -18.015625 C 10.546875 -17.210938 11 -15.910156 11 -14.109375 C 11 -11.640625 10.210938 -10.144531 8.640625 -9.625 L 11.359375 0 L 8.78125 0 L 6.265625 -9.015625 L 4.171875 -9.015625 L 4.171875 0 L 1.5 0 Z M 5.1875 -10.9375 C 6.34375 -10.9375 7.171875 -11.164062 7.671875 -11.625 C 8.171875 -12.082031 8.421875 -12.910156 8.421875 -14.109375 C 8.421875 -14.898438 8.332031 -15.519531 8.15625 -15.96875 C 7.976562 -16.425781 7.664062 -16.757812 7.21875 -16.96875 C 6.78125 -17.1875 6.160156 -17.296875 5.359375 -17.296875 L 4.171875 -17.296875 L 4.171875 -10.9375 Z M 5.1875 -10.9375 "/></g></g></g><g fill="#ffffff" fill-opacity="1"><g transform="translate(193.092325, 299.253847)"><g><path d="M 1.5 -19.21875 L 8.9375 -19.21875 L 8.9375 -17.21875 L 4.171875 -17.21875 L 4.171875 -10.859375 L 8.046875 -10.859375 L 8.046875 -8.96875 L 4.171875 -8.96875 L 4.171875 -1.921875 L 8.984375 -1.921875 L 8.984375 0 L 1.5 0 Z M 1.5 -19.21875 "/></g></g></g><g fill="#ffffff" fill-opacity="1"><g transform="translate(202.745863, 299.253847)"><g><path d="M 4.53125 -19.21875 L 7.109375 -19.21875 L 11.21875 0 L 8.6875 0 L 7.796875 -4.84375 L 3.890625 -4.84375 L 2.96875 0 L 0.453125 0 Z M 7.453125 -6.765625 L 5.828125 -15.421875 L 4.25 -6.765625 Z M 7.453125 -6.765625 "/></g></g></g><g fill="#ffffff" fill-opacity="1"><g transform="translate(214.415494, 299.253847)"><g><path d="M 6.3125 0.21875 C 4.414062 0.21875 3.078125 -0.34375 2.296875 -1.46875 C 1.523438 -2.601562 1.140625 -4.171875 1.140625 -6.171875 L 1.140625 -12.953125 C 1.140625 -15.054688 1.519531 -16.648438 2.28125 -17.734375 C 3.039062 -18.828125 4.382812 -19.375 6.3125 -19.375 C 8.03125 -19.375 9.265625 -18.90625 10.015625 -17.96875 C 10.765625 -17.039062 11.140625 -15.671875 11.140625 -13.859375 L 11.140625 -12.328125 L 8.609375 -12.328125 L 8.609375 -13.6875 C 8.609375 -14.570312 8.566406 -15.25 8.484375 -15.71875 C 8.410156 -16.195312 8.210938 -16.578125 7.890625 -16.859375 C 7.566406 -17.148438 7.046875 -17.296875 6.328125 -17.296875 C 5.597656 -17.296875 5.054688 -17.140625 4.703125 -16.828125 C 4.347656 -16.515625 4.113281 -16.085938 4 -15.546875 C 3.894531 -15.003906 3.84375 -14.273438 3.84375 -13.359375 L 3.84375 -5.734375 C 3.84375 -4.753906 3.921875 -3.988281 4.078125 -3.4375 C 4.234375 -2.882812 4.488281 -2.488281 4.84375 -2.25 C 5.207031 -2.007812 5.703125 -1.890625 6.328125 -1.890625 C 7.015625 -1.890625 7.519531 -2.039062 7.84375 -2.34375 C 8.175781 -2.644531 8.382812 -3.054688 8.46875 -3.578125 C 8.5625 -4.097656 8.609375 -4.8125 8.609375 -5.71875 L 8.609375 -7.140625 L 11.140625 -7.140625 L 11.140625 -5.71875 C 11.140625 -3.800781 10.78125 -2.332031 10.0625 -1.3125 C 9.34375 -0.289062 8.09375 0.21875 6.3125 0.21875 Z M 6.3125 0.21875 "/></g></g></g><g fill="#ffffff" fill-opacity="1"><g transform="translate(226.630665, 299.253847)"><g><path d="M 3.609375 -17.21875 L 0.359375 -17.21875 L 0.359375 -19.21875 L 9.4375 -19.21875 L 9.4375 -17.21875 L 6.28125 -17.21875 L 6.28125 0 L 3.609375 0 Z M 3.609375 -17.21875 "/></g></g></g></svg>